<?xml version="1.0" encoding="UTF-8"?>
<!DOCTYPE svg
  PUBLIC '-//W3C//DTD SVG 1.1//EN'
  'http://www.w3.org/Graphics/SVG/1.1/DTD/svg11.dtd'>
<svg version="1.1" xmlns="http://www.w3.org/2000/svg" width="18.000mm" height="7.400mm">
    <!--Autogenerated with python-barcode 0.14.0-->
    <g id="barcode_group">
        <rect x="2.000mm" y="0.000mm" width="0.167mm" height="6.400mm" style="fill:device-cmyk(0.00, 0.00, 0.00, 100.00);"/>
        <rect x="2.334mm" y="0.000mm" width="0.167mm" height="6.400mm" style="fill:device-cmyk(0.00, 0.00, 0.00, 100.00);"/>
        <rect x="3.002mm" y="0.000mm" width="0.334mm" height="5.400mm" style="fill:device-cmyk(0.00, 0.00, 0.00, 100.00);"/>
        <rect x="3.503mm" y="0.000mm" width="0.167mm" height="5.400mm" style="fill:device-cmyk(0.00, 0.00, 0.00, 100.00);"/>
        <rect x="4.171mm" y="0.000mm" width="0.334mm" height="5.400mm" style="fill:device-cmyk(0.00, 0.00, 0.00, 100.00);"/>
        <rect x="4.672mm" y="0.000mm" width="0.167mm" height="5.400mm" style="fill:device-cmyk(0.00, 0.00, 0.00, 100.00);"/>
        <rect x="5.006mm" y="0.000mm" width="0.167mm" height="5.400mm" style="fill:device-cmyk(0.00, 0.00, 0.00, 100.00);"/>
        <rect x="5.507mm" y="0.000mm" width="0.501mm" height="5.400mm" style="fill:device-cmyk(0.00, 0.00, 0.00, 100.00);"/>
        <rect x="6.509mm" y="0.000mm" width="0.334mm" height="5.400mm" style="fill:device-cmyk(0.00, 0.00, 0.00, 100.00);"/>
        <rect x="7.010mm" y="0.000mm" width="0.167mm" height="5.400mm" style="fill:device-cmyk(0.00, 0.00, 0.00, 100.00);"/>
        <rect x="7.344mm" y="0.000mm" width="0.167mm" height="5.400mm" style="fill:device-cmyk(0.00, 0.00, 0.00, 100.00);"/>
        <rect x="7.845mm" y="0.000mm" width="0.501mm" height="5.400mm" style="fill:device-cmyk(0.00, 0.00, 0.00, 100.00);"/>
        <rect x="8.680mm" y="0.000mm" width="0.501mm" height="5.400mm" style="fill:device-cmyk(0.00, 0.00, 0.00, 100.00);"/>
        <rect x="9.348mm" y="0.000mm" width="0.167mm" height="5.400mm" style="fill:device-cmyk(0.00, 0.00, 0.00, 100.00);"/>
        <rect x="9.682mm" y="0.000mm" width="0.167mm" height="6.400mm" style="fill:device-cmyk(0.00, 0.00, 0.00, 100.00);"/>
        <rect x="10.016mm" y="0.000mm" width="0.167mm" height="6.400mm" style="fill:device-cmyk(0.00, 0.00, 0.00, 100.00);"/>
        <rect x="10.350mm" y="0.000mm" width="0.167mm" height="5.400mm" style="fill:device-cmyk(0.00, 0.00, 0.00, 100.00);"/>
        <rect x="11.185mm" y="0.000mm" width="0.167mm" height="5.400mm" style="fill:device-cmyk(0.00, 0.00, 0.00, 100.00);"/>
        <rect x="11.519mm" y="0.000mm" width="0.501mm" height="5.400mm" style="fill:device-cmyk(0.00, 0.00, 0.00, 100.00);"/>
        <rect x="12.354mm" y="0.000mm" width="0.167mm" height="5.400mm" style="fill:device-cmyk(0.00, 0.00, 0.00, 100.00);"/>
        <rect x="12.688mm" y="0.000mm" width="0.167mm" height="5.400mm" style="fill:device-cmyk(0.00, 0.00, 0.00, 100.00);"/>
        <rect x="13.356mm" y="0.000mm" width="0.167mm" height="5.400mm" style="fill:device-cmyk(0.00, 0.00, 0.00, 100.00);"/>
        <rect x="13.857mm" y="0.000mm" width="0.167mm" height="5.400mm" style="fill:device-cmyk(0.00, 0.00, 0.00, 100.00);"/>
        <rect x="14.191mm" y="0.000mm" width="0.167mm" height="5.400mm" style="fill:device-cmyk(0.00, 0.00, 0.00, 100.00);"/>
        <rect x="15.026mm" y="0.000mm" width="0.334mm" height="5.400mm" style="fill:device-cmyk(0.00, 0.00, 0.00, 100.00);"/>
        <rect x="15.527mm" y="0.000mm" width="0.334mm" height="5.400mm" style="fill:device-cmyk(0.00, 0.00, 0.00, 100.00);"/>
        <rect x="16.195mm" y="0.000mm" width="0.167mm" height="5.400mm" style="fill:device-cmyk(0.00, 0.00, 0.00, 100.00);"/>
        <rect x="17.030mm" y="0.000mm" width="0.167mm" height="5.400mm" style="fill:device-cmyk(0.00, 0.00, 0.00, 100.00);"/>
        <rect x="17.364mm" y="0.000mm" width="0.167mm" height="6.400mm" style="fill:device-cmyk(0.00, 0.00, 0.00, 100.00);"/>
        <rect x="17.698mm" y="0.000mm" width="0.167mm" height="6.400mm" style="fill:device-cmyk(0.00, 0.00, 0.00, 100.00);"/>
        <text x="0.000mm" y="7.100mm" style="font-family:'-윤고딕330';font-size:4.8pt;letter-spacing:0.13em;">1</text>
        <text x="2.780mm" y="7.100mm" style="font-family:'-윤고딕330';font-size:4.8pt;letter-spacing:0.13em;">000004</text>
        <text x="10.330mm" y="7.100mm" style="font-family:'-윤고딕330';font-size:4.8pt;letter-spacing:0.13em;">307623</text>
    </g>
</svg>
